<?xml version="1.0" encoding="UTF-8" standalone="no"?>
<!DOCTYPE svg PUBLIC "-//W3C//DTD SVG 1.1//EN" "http://www.w3.org/Graphics/SVG/1.1/DTD/svg11.dtd">
<svg xmlns="http://www.w3.org/2000/svg" xmlns:xlink="http://www.w3.org/1999/xlink" version="1.1" width="252.681pt" height="191.195pt" viewBox="0 0 252.681 191.195">
<clipPath id="cp0">
<path transform="matrix(1,0,0,-1,45.848,174.48001)" d="M 0 0 L 194.27353 0 L 194.27353 161.39028 L 0 161.39028 Z "/>
</clipPath>
<g clip-path="url(#cp0)">
<path transform="matrix(1,0,0,-1,45.848,174.48001)" stroke-width="1" stroke-linecap="butt" stroke-dasharray="2.98883,2.98883" stroke-miterlimit="10" stroke-linejoin="miter" fill="none" stroke="#000000" d="M 105.98666 0 L 105.98666 26.89838 "/>
<path transform="matrix(1,0,0,-1,45.848,174.48001)" stroke-width="1" stroke-linecap="butt" stroke-dasharray="2.98883,2.98883" stroke-miterlimit="10" stroke-linejoin="miter" fill="none" stroke="#000000" d="M 0 26.89838 L 105.98666 26.89838 "/>
<path transform="matrix(1,0,0,-1,45.848,174.48001)" stroke-width="1" stroke-linecap="butt" stroke-dasharray="2.98883,2.98883" stroke-miterlimit="10" stroke-linejoin="miter" fill="none" stroke="#000000" d="M 0 80.69513 L 176.57378 80.69513 "/>
<path transform="matrix(1,0,0,-1,45.848,174.48001)" stroke-width="1" stroke-linecap="butt" stroke-dasharray="2.98883,2.98883" stroke-miterlimit="10" stroke-linejoin="miter" fill="none" stroke="#000000" d="M 176.57378 0 L 176.57378 80.69513 "/>
<path transform="matrix(1,0,0,-1,45.848,174.48001)" stroke-width="1.19553" stroke-linecap="butt" stroke-miterlimit="10" stroke-linejoin="miter" fill="none" stroke="#000080" d="M 0 13.44919 C 0 13.44919 5.84846 13.82855 8.09471 13.98283 C 10.34096 14.13712 13.94319 14.39381 16.18945 14.56116 C 18.4357 14.7285 22.03795 15.00688 24.2842 15.18896 C 26.53044 15.37103 30.13268 15.67455 32.37892 15.87354 C 34.62515 16.07253 38.2274 16.40498 40.47365 16.62318 C 42.7199 16.8414 46.32213 17.20593 48.56837 17.44627 C 50.8146 17.68661 54.41684 18.08919 56.6631 18.35544 C 58.90936 18.62169 62.51161 19.06876 64.75786 19.3652 C 67.00409 19.66164 70.60632 20.15993 72.85257 20.49197 C 75.09882 20.824 78.70107 21.38396 80.94731 21.75836 C 83.19354 22.13275 86.79579 22.7649 89.04204 23.19043 C 91.28828 23.61597 94.89052 24.33727 97.13676 24.8253 C 99.383 25.31335 102.98524 26.14262 105.2315 26.70792 C 107.47777 27.27322 111.08 28.23686 113.32625 28.89961 C 115.57248 29.56235 119.17471 30.69707 121.42096 31.48454 C 123.6672 32.272 127.26945 33.62424 129.5157 34.57516 C 131.76194 35.5261 135.36418 37.16637 137.61043 38.33824 C 139.85668 39.51012 143.45891 41.54112 145.70516 43.02126 C 147.95139 44.5014 151.55364 47.07664 153.79988 49.00613 C 156.04613 50.93564 159.64838 54.30592 161.89463 56.92772 C 164.14086 59.54951 167.74309 64.12912 169.98934 67.90225 C 172.23558 71.6754 175.83783 78.20847 178.08408 84.12198 C 180.3303 90.03549 183.93256 99.8467 186.1788 110.52274 C 188.42505 121.19878 194.27353 161.06749 194.27353 161.06749 "/>
<path transform="matrix(1,0,0,-1,45.848,174.48001)" stroke-width="1" stroke-linecap="butt" stroke-miterlimit="10" stroke-linejoin="miter" fill="none" stroke="#000000" d="M 105.98666 23.85272 C 106.36026 23.10551 107.23201 22.60738 108.47736 22.60738 L 138.78952 22.60738 C 140.03487 22.60738 140.90663 22.10925 141.28022 21.36203 C 141.65381 22.10925 142.52556 22.60738 143.7709 22.60738 L 174.08309 22.60738 C 175.32843 22.60738 176.2002 23.10551 176.57378 23.85272 "/>
<path transform="matrix(1,0,0,-1,45.848,174.48001)" stroke-width="1" stroke-linecap="butt" stroke-miterlimit="10" stroke-linejoin="miter" fill="none" stroke="#000000" d="M 178.69847 26.89838 C 179.44568 27.27196 179.94382 28.14372 179.94382 29.38907 L 179.94382 51.30606 C 179.94382 52.5514 180.44194 53.42317 181.18917 53.79675 C 180.44194 54.17035 179.94382 55.0421 179.94382 56.28745 L 179.94382 78.20444 C 179.94382 79.44978 179.44568 80.32155 178.69847 80.69513 "/>
<path transform="matrix(1,0,0,-1,45.848,174.48001)" stroke-width="1.19553" stroke-linecap="butt" stroke-miterlimit="10" stroke-linejoin="miter" fill="none" stroke="#800000" d="M 176.57378 26.89838 L 176.57378 77.50705 "/>
<path transform="matrix(0,-1,-1,-0,222.42179,96.97296)" d="M 3.18808 0 L -1.91284 2.55046 L 0 0 L -1.91284 -2.55046 " fill="#800000"/>
<path transform="matrix(1,0,0,-1,45.848,174.48001)" stroke-width="1.19553" stroke-linecap="butt" stroke-miterlimit="10" stroke-linejoin="miter" fill="none" stroke="#008000" d="M 105.98666 26.89838 L 173.3857 26.89838 "/>
<path transform="matrix(1,0,0,-1,219.2337,147.58164)" d="M 3.18808 0 L -1.91284 2.55046 L 0 0 L -1.91284 -2.55046 " fill="#008000"/>
<symbol id="font_1_5">
<path d="M .421 .34200005 C .421 .42200003 .416 .50200006 .381 .57600006 C .335 .67200008 .25300003 .688 .211 .688 C .15100001 .688 .07800001 .66200008 .037000006 .56900009 C .0050000029 .5 0 .42200003 0 .34200005 C 0 .26700003 .0040000008 .177 .045000007 .101 C .088 .020000002 .161 0 .21000001 0 C .264 0 .34 .021000002 .384 .116000007 C .416 .185 .421 .263 .421 .34200005 M .21000001 .022000002 C .171 .022000002 .112 .047000003 .094 .143 C .083000008 .20300001 .083000008 .29500003 .083000008 .35400004 C .083000008 .41800005 .083000008 .48400004 .091000009 .53800007 C .11 .65700009 .185 .66600009 .21000001 .66600009 C .243 .66600009 .30900003 .64800009 .328 .549 C .338 .49300004 .338 .41700004 .338 .35400004 C .338 .279 .338 .21100001 .32700003 .147 C .312 .052 .255 .022000002 .21000001 .022000002 Z "/>
</symbol>
<use xlink:href="#font_1_5" transform="matrix(9.9626,0,0,-9.9626,43.74554,180.59918)"/>
<symbol id="font_2_3">
<path d="M .232 .694 C .232 .695 .232 .705 .21900001 .705 C .19600001 .705 .122999999 .697 .097 .695 C .089 .694 .077999997 .693 .077999997 .675 C .077999997 .663 .087 .663 .102 .663 C .15 .663 .15200001 .656 .15200001 .646 L .149 .626 L .0040000008 .05 C 0 .036000004 0 .034 0 .028 C 0 .005000001 .02 0 .029000003 0 C .044999999 0 .061 .012000001 .066 .026 L .08499999 .102000009 L .10699999 .19200002 C .113000009 .21400002 .119 .23600002 .124 .259 C .126 .26500003 .134 .298 .135 .30400003 C .138 .31300003 .169 .36900003 .20300001 .39600004 C .225 .41200004 .256 .43100003 .299 .43100003 C .342 .43100003 .35300002 .397 .35300002 .36100004 C .35300002 .307 .315 .19800002 .291 .13700001 C .28300003 .11400001 .278 .102000009 .278 .082 C .278 .035 .31300003 0 .36 0 C .454 0 .491 .14600002 .491 .15400002 C .491 .16400002 .482 .16400002 .47900004 .16400002 C .46900005 .16400002 .46900005 .16100002 .46400006 .14600002 C .449 .093 .41700004 .022000002 .36200003 .022000002 C .345 .022000002 .338 .032 .338 .055000005 C .338 .080000009 .347 .104 .356 .126 C .372 .16900002 .41700004 .28800003 .41700004 .34600003 C .41700004 .411 .377 .45300005 .30200003 .45300005 C .239 .45300005 .191 .42200003 .154 .37600003 L .232 .694 Z "/>
</symbol>
<use xlink:href="#font_2_3" transform="matrix(9.9626,0,0,-9.9626,186.60596,164.5996)"/>
<symbol id="font_1_1">
<path d="M .39500005 .698 C .38800005 .711 .38600005 .716 .36900003 .716 C .35200004 .716 .35000003 .711 .34300003 .698 L .004999999 .020000002 C 0 .011000001 0 .009000001 0 .008 C 0 0 .006000001 0 .022000004 0 L .716 0 C .73200008 0 .73800006 0 .73800006 .008 C .73800006 .009000001 .73800006 .011000001 .73300006 .020000002 L .39500005 .698 M .337 .61600008 L .60600009 .076000008 L .067 .076000008 L .337 .61600008 Z "/>
</symbol>
<use xlink:href="#font_1_1" transform="matrix(9.9626,0,0,-9.9626,227.13826,125.809009)"/>
<symbol id="font_2_5">
<path d="M .45700003 .586 C .461 .6 .461 .602 .461 .609 C .461 .62700006 .447 .63600006 .432 .63600006 C .42200003 .63600006 .40600003 .63 .397 .615 C .395 .61 .387 .579 .38300003 .561 C .37600003 .535 .36900003 .508 .363 .48100005 L .318 .301 C .314 .286 .271 .21600002 .20500002 .21600002 C .15400002 .21600002 .143 .26000003 .143 .29700003 C .143 .34300003 .16000001 .40500004 .194 .49300004 C .21000001 .53400006 .21400002 .545 .21400002 .56500008 C .21400002 .61 .18200001 .6470001 .13200002 .6470001 C .037 .6470001 0 .50200006 0 .49300004 C 0 .48300005 .01 .48300005 .012 .48300005 C .022000002 .48300005 .023 .485 .028000003 .50100007 C .055000009 .595 .095000009 .625 .12900001 .625 C .13700001 .625 .15400002 .625 .15400002 .59300008 C .15400002 .568 .14400001 .54200008 .13700001 .523 C .097 .41700004 .079 .36 .079 .31300003 C .079 .224 .142 .194 .201 .194 C .24000003 .194 .274 .21100001 .30200003 .23900002 C .289 .187 .277 .13800001 .237 .08500001 C .21100001 .051 .17300001 .022 .127 .022 C .113000009 .022 .068 .025000006 .051000008 .06400001 C .067 .06400001 .080000009 .06400001 .094000007 .076000008 C .104 .08500001 .11400001 .098000008 .11400001 .117000009 C .11400001 .148 .087000008 .15200001 .07700001 .15200001 C .054000006 .15200001 .021 .136 .021 .087000008 C .021 .037 .065000008 0 .127 0 C .23 0 .333 .091000009 .361 .20400001 L .45700003 .586 Z "/>
</symbol>
<use xlink:href="#font_2_5" transform="matrix(9.9626,0,0,-9.9626,235.26093,127.85134)"/>
<symbol id="font_1_6">
<path d="M .63100007 .19400002 C .646 .19400002 .665 .19400002 .665 .214 C .665 .23400001 .646 .23400001 .632 .23400001 L .033 .23400001 C .019000002 .23400001 0 .23400001 0 .214 C 0 .19400002 .019000002 .19400002 .034 .19400002 L .63100007 .19400002 M .632 0 C .646 0 .665 0 .665 .02000001 C .665 .040000008 .646 .040000008 .63100007 .040000008 L .034 .040000008 C .019000002 .040000008 0 .040000008 0 .02000001 C 0 0 .019000002 0 .033 0 L .632 0 Z "/>
</symbol>
<use xlink:href="#font_1_6" transform="matrix(9.9626,0,0,-9.9626,118.51391,42.35399)"/>
<use xlink:href="#font_1_1" transform="matrix(9.9626,0,0,-9.9626,130.13625,36.93901)"/>
<use xlink:href="#font_2_5" transform="matrix(9.9626,0,0,-9.9626,138.25891,38.981344)"/>
<path transform="matrix(1,0,0,-1,129.668,41.18802)" stroke-width="1" stroke-linecap="butt" stroke-miterlimit="10" stroke-linejoin="miter" fill="none" stroke="#000000" d="M 0 0 L 13.544 0 "/>
<use xlink:href="#font_2_3" transform="matrix(9.9626,0,0,-9.9626,134.11795,50.622606)"/>
<use xlink:href="#font_1_6" transform="matrix(9.9626,0,0,-9.9626,147.73291,42.35399)"/>
<symbol id="font_2_2">
<path d="M .314 .605 L .4 .605 C .42000003 .605 .43 .605 .43 .625 C .43 .63600006 .42000003 .63600006 .40300004 .63600006 L .32000003 .63600006 L .34100003 .75 C .34500004 .771 .35900004 .842 .365 .8540001 C .374 .873 .39100004 .888 .41200004 .888 C .416 .888 .44200004 .888 .461 .87 C .41700004 .86600008 .407 .8310001 .407 .816 C .407 .793 .425 .781 .444 .781 C .47 .781 .49900005 .8030001 .49900005 .8410001 C .49900005 .8870001 .45300005 .9100001 .41200004 .9100001 C .37800003 .9100001 .31500004 .8920001 .28500004 .793 C .279 .7720001 .27600003 .7620001 .252 .63600006 L .18300002 .63600006 C .164 .63600006 .15300001 .63600006 .15300001 .61700007 C .15300001 .605 .162 .605 .18100001 .605 L .24700001 .605 L .172 .21000001 C .15400002 .113000009 .13700001 .022 .08500001 .022 C .081 .022 .056 .022 .037 .040000008 C .083000008 .043000014 .09200001 .07900001 .09200001 .094000007 C .09200001 .117000009 .074 .12900001 .055 .12900001 C .029 .12900001 0 .10700001 0 .069000009 C 0 .024000004 .044 0 .08500001 0 C .14 0 .18 .059 .19800002 .09700001 C .23000002 .16000001 .25300003 .28100003 .254 .28800003 L .314 .605 Z "/>
</symbol>
<use xlink:href="#font_2_2" transform="matrix(9.9626,0,0,-9.9626,159.41402,38.981344)"/>
<symbol id="font_1_2">
<path d="M .23200003 .00999999 C .23200003 .012999982 .23200003 .014999986 .215 .03199999 C .09 .15799999 .058 .347 .058 .5 C .058 .674 .096 .84800007 .21900001 .97300007 C .23200003 .985 .23200003 .98700007 .23200003 .99 C .23200003 .99700006 .22800002 1 .222 1 C .21200001 1 .12200001 .93200007 .06299999 .805 C .012000002 .69500008 0 .584 0 .5 C 0 .422 .011 .301 .066 .188 C .126 .065 .21200001 0 .222 0 C .22800002 0 .23200003 .0029999912 .23200003 .00999999 Z "/>
</symbol>
<use xlink:href="#font_1_2" transform="matrix(9.9626,0,0,-9.9626,165.8223,39.42966)"/>
<symbol id="font_2_1">
<path d="M .33300004 .38900004 C .31500004 .42600004 .286 .45300005 .24100001 .45300005 C .124 .45300005 0 .30600003 0 .16000001 C 0 .06600001 .055000005 0 .133 0 C .153 0 .20300001 .0040000008 .263 .075 C .27100004 .033000005 .30600003 0 .35400004 0 C .38900004 0 .41200004 .023000002 .42800004 .055000005 C .44500003 .091000009 .45800004 .15200001 .45800004 .15400002 C .45800004 .16400002 .44900004 .16400002 .44600005 .16400002 C .43600003 .16400002 .43500004 .16000001 .43200005 .14600002 C .41500003 .081 .397 .022000002 .35600005 .022000002 C .32900004 .022000002 .32600004 .048 .32600004 .068 C .32600004 .09 .32800005 .098000008 .33900003 .14200002 C .35000003 .18400002 .35200004 .19400002 .36100004 .23200003 L .397 .37200005 C .40400005 .40000005 .40400005 .40200005 .40400005 .40600003 C .40400005 .42300005 .39200003 .43300004 .37500004 .43300004 C .35100005 .43300004 .33600004 .411 .33300004 .38900004 M .26800005 .13000001 C .263 .112 .263 .11000001 .24800001 .093 C .20400001 .038000004 .163 .022000002 .135 .022000002 C .08499999 .022000002 .07100001 .077 .07100001 .116000007 C .07100001 .16600001 .103 .28900004 .126 .335 C .157 .39400003 .202 .43100003 .242 .43100003 C .307 .43100003 .32100005 .34900005 .32100005 .34300003 C .32100005 .337 .31900005 .33100004 .31800003 .32600004 L .26800005 .13000001 Z "/>
</symbol>
<use xlink:href="#font_2_1" transform="matrix(9.9626,0,0,-9.9626,169.1095,37.0486)"/>
<symbol id="font_1_4">
<path d="M .35300002 .31300003 L .632 .31300003 C .646 .31300003 .665 .31300003 .665 .333 C .665 .35300002 .646 .35300002 .632 .35300002 L .35300002 .35300002 L .35300002 .633 C .35300002 .647 .35300002 .666 .33300004 .666 C .31300003 .666 .31300003 .647 .31300003 .633 L .31300003 .35300002 L .033 .35300002 C .019000002 .35300002 0 .35300002 0 .333 C 0 .31300003 .019000002 .31300003 .033 .31300003 L .31300003 .31300003 L .31300003 .033000005 C .31300003 .019000002 .31300003 0 .33300004 0 C .35300002 0 .35300002 .019000002 .35300002 .033000005 L .35300002 .31300003 Z "/>
</symbol>
<use xlink:href="#font_1_4" transform="matrix(9.9626,0,0,-9.9626,176.7489,37.765909)"/>
<use xlink:href="#font_2_3" transform="matrix(9.9626,0,0,-9.9626,186.70095,37.0486)"/>
<symbol id="font_1_3">
<path d="M .232 .5 C .232 .578 .22100002 .699 .16600001 .81200006 C .106 .93500009 .020000004 1 .009999998 1 C .0040000008 1 0 .99600008 0 .99 C 0 .98700007 0 .985 .019000002 .967 C .117000009 .86800006 .174 .709 .174 .5 C .174 .329 .137 .153 .012999997 .026999996 C 0 .014999986 0 .012999982 0 .00999999 C 0 .003999993 .0040000008 0 .009999998 0 C .020000004 0 .11000001 .06799999 .169 .195 C .22 .305 .232 .416 .232 .5 Z "/>
</symbol>
<use xlink:href="#font_1_3" transform="matrix(9.9626,0,0,-9.9626,192.46088,39.42966)"/>
<symbol id="font_3_1">
<path d="M .57600006 0 C .59300008 0 .611 0 .611 .019999996 C .611 .040000008 .59300008 .040000008 .57600006 .040000008 L .035000005 .040000008 C .018 .040000008 0 .040000008 0 .019999996 C 0 0 .018 0 .035000005 0 L .57600006 0 Z "/>
</symbol>
<use xlink:href="#font_3_1" transform="matrix(9.9626,0,0,-9.9626,198.80789,34.647615)"/>
<use xlink:href="#font_2_2" transform="matrix(9.9626,0,0,-9.9626,208.47202,38.981344)"/>
<use xlink:href="#font_1_2" transform="matrix(9.9626,0,0,-9.9626,214.8803,39.42966)"/>
<use xlink:href="#font_2_1" transform="matrix(9.9626,0,0,-9.9626,218.16649,37.0486)"/>
<use xlink:href="#font_1_3" transform="matrix(9.9626,0,0,-9.9626,223.60187,39.42966)"/>
<path transform="matrix(1,0,0,-1,158.886,41.18802)" stroke-width="1" stroke-linecap="butt" stroke-miterlimit="10" stroke-linejoin="miter" fill="none" stroke="#000000" d="M 0 0 L 68.023 0 "/>
<use xlink:href="#font_2_3" transform="matrix(9.9626,0,0,-9.9626,190.57494,50.622606)"/>
<symbol id="font_1_7">
<path d="M .291 .087000008 C .29500003 .047000003 .32200004 .005000001 .36900003 .005000001 C .39000003 .005000001 .45100004 .019000002 .45100004 .1 L .45100004 .15600002 L .42600004 .15600002 L .42600004 .1 C .42600004 .042000005 .40100003 .036000004 .39000003 .036000004 C .35700003 .036000004 .35300002 .081 .35300002 .086 L .35300002 .286 C .35300002 .328 .35300002 .367 .31700004 .404 C .27800004 .44300003 .22800002 .45900003 .18 .45900003 C .098 .45900003 .029 .41200004 .029 .34600003 C .029 .316 .049000004 .29900003 .075 .29900003 C .10300001 .29900003 .121 .31900005 .121 .34500004 C .121 .35700003 .116000007 .39000003 .07 .39100004 C .09700001 .42600004 .146 .43700005 .178 .43700005 C .22700003 .43700005 .284 .39800004 .284 .30900003 L .284 .272 C .23300001 .26900003 .16300002 .26600004 .1 .23600002 C .024999999 .20200002 0 .15000002 0 .106000009 C 0 .025000003 .09700001 0 .16 0 C .22600001 0 .272 .040000004 .291 .087000008 M .284 .25100003 L .284 .15100001 C .284 .056 .21200001 .022000002 .167 .022000002 C .11800001 .022000002 .077 .057000005 .077 .107 C .077 .16200002 .11900001 .24500002 .284 .25100003 Z "/>
</symbol>
<symbol id="font_1_11">
<path d="M .397 .344 C .40600003 .367 .42300005 .41000004 .48900003 .411 L .48900003 .44200004 C .46600003 .44000004 .43700005 .43900005 .41400004 .43900005 C .39000003 .43900005 .344 .441 .32700003 .44200004 L .32700003 .411 C .36400003 .41000004 .37500004 .38700003 .37500004 .36800004 C .37500004 .35900004 .37300004 .35500003 .36900003 .344 L .26700003 .089 L .155 .36800004 C .14900002 .381 .14900002 .38300003 .14900002 .38500003 C .14900002 .411 .18800003 .411 .206 .411 L .206 .44200004 C .176 .441 .12000001 .43900005 .097 .43900005 C .07 .43900005 .030000002 .44000004 0 .44200004 L 0 .411 C .063 .411 .067 .40500004 .080000009 .374 L .224 .019000002 C .23000002 .005000001 .23200003 0 .245 0 C .25800003 0 .26200003 .009000001 .26600004 .019000002 L .397 .344 Z "/>
</symbol>
<symbol id="font_1_9">
<path d="M .08400001 .263 C .09 .41200004 .17400001 .43700005 .20800002 .43700005 C .31100003 .43700005 .321 .30200003 .321 .263 L .08400001 .263 M .083000008 .24200002 L .36200003 .24200002 C .38400004 .24200002 .38700003 .24200002 .38700003 .263 C .38700003 .36200003 .33300004 .45900003 .20800002 .45900003 C .09200001 .45900003 0 .35600005 0 .23100002 C 0 .097 .105000007 0 .22000002 0 C .342 0 .38700003 .111 .38700003 .13000001 C .38700003 .14000002 .379 .14200002 .374 .14200002 C .365 .14200002 .36300005 .136 .36100004 .128 C .326 .025000003 .236 .025000003 .22600001 .025000003 C .17600002 .025000003 .136 .055000005 .113000009 .092 C .083000008 .14000002 .083000008 .20600002 .083000008 .24200002 Z "/>
</symbol>
<symbol id="font_1_f">
<path d="M .13900002 .33200003 L .13900002 .44200004 L 0 .43100003 L 0 .4 C .07000001 .4 .07800001 .393 .07800001 .344 L .07800001 .076000008 C .07800001 .031000002 .067 .031000002 0 .031000002 L 0 0 C .039 .001 .08600001 .003 .11400001 .003 C .15400002 .003 .20100002 .003 .24100003 0 L .24100003 .031000002 L .22000002 .031000002 C .14600002 .031000002 .14400001 .042000005 .14400001 .078 L .14400001 .23200001 C .14400001 .33100004 .18600002 .42000003 .26200003 .42000003 C .26900003 .42000003 .27100004 .42000003 .27300004 .41900004 C .27 .418 .25000004 .40600003 .25000004 .38000003 C .25000004 .35200004 .27100004 .337 .293 .337 C .31100003 .337 .33600004 .349 .33600004 .381 C .33600004 .41300003 .305 .44200004 .26200003 .44200004 C .18900001 .44200004 .15300001 .37500004 .13900002 .33200003 Z "/>
</symbol>
<symbol id="font_1_b">
<path d="M .19400002 .37800003 C .10700001 .37800003 .10700001 .47800005 .10700001 .50100007 C .10700001 .52800008 .10800001 .56 .12300001 .58500006 C .13100001 .59700009 .15400002 .62500008 .19400002 .62500008 C .28100003 .62500008 .28100003 .52500006 .28100003 .50200006 C .28100003 .47500003 .28000004 .44300003 .26500003 .41800005 C .25700004 .40600003 .23400003 .37800003 .19400002 .37800003 M .07800001 .33900003 C .07800001 .34300003 .07800001 .36600004 .095 .38600005 C .134 .35800005 .17500001 .35500003 .19400002 .35500003 C .28700004 .35500003 .356 .42400003 .356 .50100007 C .356 .53800007 .34000004 .57500007 .31500004 .59800007 C .351 .632 .38700003 .637 .40500004 .637 C .40700004 .637 .41200004 .637 .41500003 .63600006 C .404 .632 .39900003 .62100008 .39900003 .609 C .39900003 .592 .41200004 .58000007 .42800004 .58000007 C .43800003 .58000007 .45700003 .587 .45700003 .61 C .45700003 .62700006 .44500003 .65900006 .40600003 .65900006 C .38600005 .65900006 .342 .65300008 .3 .61200007 C .25800003 .64500007 .21600002 .64800009 .19400002 .64800009 C .10100001 .64800009 .032 .57900008 .032 .50200006 C .032 .458 .054 .42000003 .07900001 .39900003 C .066 .384 .048000006 .351 .048000006 .316 C .048000006 .28500004 .061 .24700001 .09200001 .22700002 C .032 .21000001 0 .16700001 0 .127 C 0 .055000009 .09900001 0 .22100002 0 C .33900003 0 .44300003 .051000015 .44300003 .12900001 C .44300003 .164 .42900003 .21500002 .37800003 .24300002 C .32500003 .27100004 .26700003 .27100004 .20600002 .27100004 C .18100001 .27100004 .13800001 .27100004 .13100001 .272 C .09900001 .27600003 .07800001 .307 .07800001 .33900003 M .222 .023000002 C .12100001 .023000002 .052000006 .074000019 .052000006 .127 C .052000006 .17300001 .09 .21000001 .134 .21300002 L .19300002 .21300002 C .279 .21300002 .39100004 .21300002 .39100004 .127 C .39100004 .073000017 .32000003 .023000002 .222 .023000002 Z "/>
</symbol>
<symbol id="font_1_10">
<path d="M .15400002 .411 L .29700003 .411 L .29700003 .44200004 L .15400002 .44200004 L .15400002 .626 L .12900001 .626 C .12799999 .544 .098000008 .43700005 0 .43300004 L 0 .411 L .085 .411 L .085 .135 C .085 .012000001 .178 0 .21400002 0 C .28500004 0 .31300003 .071 .31300003 .135 L .31300003 .19200002 L .28800003 .19200002 L .28800003 .13700001 C .28800003 .063 .25800003 .025000003 .22100002 .025000003 C .15400002 .025000003 .15400002 .116000007 .15400002 .13300002 L .15400002 .411 Z "/>
</symbol>
<use xlink:href="#font_1_7" transform="matrix(9.9626,0,0,-9.9626,62.20443,38.159608)"/>
<use xlink:href="#font_1_11" transform="matrix(9.9626,0,0,-9.9626,66.677639,38.159608)"/>
<use xlink:href="#font_1_9" transform="matrix(9.9626,0,0,-9.9626,71.7486,38.159608)"/>
<use xlink:href="#font_1_f" transform="matrix(9.9626,0,0,-9.9626,76.17199,38.05002)"/>
<use xlink:href="#font_1_7" transform="matrix(9.9626,0,0,-9.9626,80.216808,38.159608)"/>
<use xlink:href="#font_1_b" transform="matrix(9.9626,0,0,-9.9626,85.05863,40.102315)"/>
<use xlink:href="#font_1_9" transform="matrix(9.9626,0,0,-9.9626,90.03993,38.159608)"/>
<use xlink:href="#font_1_f" transform="matrix(9.9626,0,0,-9.9626,97.79083,38.05002)"/>
<use xlink:href="#font_1_7" transform="matrix(9.9626,0,0,-9.9626,101.83565,38.159608)"/>
<use xlink:href="#font_1_10" transform="matrix(9.9626,0,0,-9.9626,106.587818,38.159608)"/>
<use xlink:href="#font_1_9" transform="matrix(9.9626,0,0,-9.9626,110.552928,38.159608)"/>
<symbol id="font_1_e">
<path d="M .44300003 .22500003 C .44300003 .35300002 .34300003 .45900003 .222 .45900003 C .097 .45900003 0 .35000003 0 .22500003 C 0 .096 .104 0 .22100002 0 C .342 0 .44300003 .098000008 .44300003 .22500003 M .222 .025000003 C .17900002 .025000003 .135 .046 .10800001 .092 C .083000008 .136 .083000008 .19700001 .083000008 .23300003 C .083000008 .272 .083000008 .32600004 .10700001 .37000004 C .134 .41600005 .18100001 .43700005 .22100002 .43700005 C .26500003 .43700005 .30800004 .41500003 .33400003 .37200005 C .36 .32900004 .36 .27100004 .36 .23300003 C .36 .19700001 .36 .143 .33800004 .09900001 C .316 .054 .272 .025000003 .222 .025000003 Z "/>
</symbol>
<symbol id="font_1_a">
<path d="M .14200002 .43100003 L .14200002 .54700008 C .14200002 .63500007 .19 .683 .23400003 .683 C .23700002 .683 .25200004 .683 .26700003 .67600008 C .25500003 .67200008 .23700002 .65900006 .23700002 .634 C .23700002 .611 .25300003 .591 .28000004 .591 C .30900003 .591 .32400004 .611 .32400004 .63500007 C .32400004 .67200008 .28700004 .70500007 .23400003 .70500007 C .164 .70500007 .079 .652 .079 .546 L .079 .43100003 L 0 .43100003 L 0 .4 L .079 .4 L .079 .076000008 C .079 .031000002 .068 .031000002 .001000002 .031000002 L .001000002 0 C .040000008 .001 .087000008 .003 .115 .003 C .155 .003 .20200002 .003 .24200002 0 L .24200002 .031000002 L .22100002 .031000002 C .14700002 .031000002 .14500001 .042000005 .14500001 .078 L .14500001 .4 L .25900004 .4 L .25900004 .43100003 L .14200002 .43100003 Z "/>
</symbol>
<symbol id="font_1_8">
<path d="M .083000008 .22900002 C .083000008 .39200003 .16500002 .43400003 .218 .43400003 C .227 .43400003 .29 .43300004 .32500003 .397 C .284 .39400003 .278 .36400003 .278 .351 C .278 .32500003 .296 .305 .324 .305 C .35 .305 .37 .32200004 .37 .35200004 C .37 .42000003 .294 .45900003 .21700001 .45900003 C .092 .45900003 0 .351 0 .22700002 C 0 .09900001 .099 0 .215 0 C .349 0 .381 .120000008 .381 .13000001 C .381 .14000002 .37100003 .14000002 .368 .14000002 C .359 .14000002 .35700003 .136 .35500003 .13000001 C .326 .037 .261 .025000003 .224 .025000003 C .171 .025000003 .083000008 .068 .083000008 .22900002 Z "/>
</symbol>
<symbol id="font_1_c">
<path d="M .07800001 .076000008 C .07800001 .031000002 .067 .031000002 0 .031000002 L 0 0 C .035 .001 .08600001 .003 .113000009 .003 C .139 .003 .191 .001 .225 0 L .225 .031000002 C .158 .031000002 .147 .031000002 .147 .076000008 L .147 .26000003 C .147 .36400003 .218 .42000003 .282 .42000003 C .345 .42000003 .356 .36600004 .356 .30900003 L .356 .076000008 C .356 .031000002 .345 .031000002 .278 .031000002 L .278 0 C .31300003 .001 .36400003 .003 .391 .003 C .41700004 .003 .46900005 .001 .503 0 L .503 .031000002 C .451 .031000002 .42600004 .031000002 .425 .061000006 L .425 .252 C .425 .33800004 .425 .36900003 .39400003 .40500004 C .38000003 .42200003 .347 .44200004 .289 .44200004 C .20500002 .44200004 .161 .38200004 .14400001 .344 L .14400001 .694 L 0 .683 L 0 .652 C .07000001 .652 .07800001 .64500007 .07800001 .596 L .07800001 .076000008 Z "/>
</symbol>
<symbol id="font_1_d">
<path d="M .07800001 .344 L .07800001 .076000008 C .07800001 .031000002 .067 .031000002 0 .031000002 L 0 0 C .035 .001 .08600001 .003 .113000009 .003 C .139 .003 .191 .001 .225 0 L .225 .031000002 C .158 .031000002 .147 .031000002 .147 .076000008 L .147 .26000003 C .147 .36400003 .218 .42000003 .282 .42000003 C .345 .42000003 .356 .36600004 .356 .30900003 L .356 .076000008 C .356 .031000002 .345 .031000002 .278 .031000002 L .278 0 C .31300003 .001 .36400003 .003 .391 .003 C .41700004 .003 .46900005 .001 .503 0 L .503 .031000002 C .451 .031000002 .42600004 .031000002 .425 .061000006 L .425 .252 C .425 .33800004 .425 .36900003 .39400003 .40500004 C .38000003 .42200003 .347 .44200004 .289 .44200004 C .216 .44200004 .169 .39900003 .141 .337 L .141 .44200004 L 0 .43100003 L 0 .4 C .07000001 .4 .07800001 .393 .07800001 .344 Z "/>
</symbol>
<use xlink:href="#font_1_e" transform="matrix(9.9626,0,0,-9.9626,73.02296,46.8936)"/>
<use xlink:href="#font_1_a" transform="matrix(9.9626,0,0,-9.9626,78.05407,46.78401)"/>
<use xlink:href="#font_1_8" transform="matrix(9.9626,0,0,-9.9626,84.43013,46.8936)"/>
<use xlink:href="#font_1_c" transform="matrix(9.9626,0,0,-9.9626,88.564609,46.78401)"/>
<use xlink:href="#font_1_7" transform="matrix(9.9626,0,0,-9.9626,94.20344,46.8936)"/>
<use xlink:href="#font_1_d" transform="matrix(9.9626,0,0,-9.9626,99.08511,46.78401)"/>
<use xlink:href="#font_1_b" transform="matrix(9.9626,0,0,-9.9626,104.58447,48.836309)"/>
<use xlink:href="#font_1_9" transform="matrix(9.9626,0,0,-9.9626,109.56577,46.8936)"/>
<symbol id="font_4_1">
<path d="M .395 .606 C .41500003 .606 .42300005 .606 .42300005 .62500008 C .42300005 .63500007 .41500003 .63500007 .397 .63500007 L .316 .63500007 C .335 .73800006 .349 .809 .35700003 .841 C .36300005 .865 .38400004 .888 .41000004 .888 C .43100003 .888 .45200003 .879 .462 .87 C .42300005 .86600008 .411 .837 .411 .82000008 C .411 .8 .42600004 .78800007 .44500003 .78800007 C .46500004 .78800007 .495 .805 .495 .84300008 C .495 .88500007 .453 .90800008 .409 .90800008 C .36600004 .90800008 .32400004 .87600007 .30400003 .837 C .286 .80200007 .27600003 .76600006 .25300003 .63500007 L .18600002 .63500007 C .16700001 .63500007 .157 .63500007 .157 .61700007 C .157 .606 .16300002 .606 .18300002 .606 L .24700001 .606 C .229 .513 .18800001 .287 .165 .18 C .14800002 .093 .13300002 .019999996 .083000008 .019999996 C .08000001 .019999996 .051000004 .019999996 .033000005 .039000006 C .08400001 .042999999 .08400001 .087000008 .08400001 .08800001 C .08400001 .10800001 .069000009 .120000008 .05 .120000008 C .029999998 .120000008 0 .10300001 0 .065 C 0 .022 .044000005 0 .083000008 0 C .18500002 0 .22700003 .18300002 .238 .23300001 C .256 .31 .305 .57600006 .31000004 .606 L .395 .606 Z "/>
</symbol>
<use xlink:href="#font_4_1" transform="matrix(11.9552,0,0,-11.9552,233.07172,77.69486)" fill="#000080"/>
</g>
<path transform="matrix(1,0,0,-1,45.848,174.48001)" stroke-width="1" stroke-linecap="butt" stroke-miterlimit="10" stroke-linejoin="miter" fill="none" stroke="#808080" d="M 105.98666 -2.12596 L 105.98666 2.12596 M 176.57378 -2.12596 L 176.57378 2.12596 "/>
<path transform="matrix(1,0,0,-1,45.848,174.48001)" stroke-width="1" stroke-linecap="butt" stroke-miterlimit="10" stroke-linejoin="miter" fill="none" stroke="#808080" d="M -2.12617 26.89838 L 2.12617 26.89838 M -2.12617 80.69513 L 2.12617 80.69513 "/>
<path transform="matrix(1,0,0,-1,45.848,174.48001)" stroke-width="1" stroke-linecap="butt" stroke-miterlimit="10" stroke-linejoin="miter" fill="none" stroke="#000000" d="M 0 0 L 192.281 0 "/>
<path transform="matrix(1,0,0,-1,238.129,174.48001)" d="M 1.99252 0 L -1.19551 1.59401 L 0 0 L -1.19551 -1.59401 "/>
<path transform="matrix(1,0,0,-1,45.848,174.48001)" stroke-width="1" stroke-linecap="butt" stroke-miterlimit="10" stroke-linejoin="miter" fill="none" stroke="#000000" d="M 0 0 L 0 159.39775 "/>
<path transform="matrix(0,-1,-1,-0,45.848,15.08226)" d="M 1.99252 0 L -1.19551 1.59401 L 0 0 L -1.19551 -1.59401 "/>
<use xlink:href="#font_2_1" transform="matrix(9.9626,0,0,-9.9626,149.5985,184.5246)"/>
<use xlink:href="#font_2_1" transform="matrix(9.9626,0,0,-9.9626,211.2265,187.1536)"/>
<use xlink:href="#font_1_4" transform="matrix(9.9626,0,0,-9.9626,218.8659,187.8709)"/>
<use xlink:href="#font_2_3" transform="matrix(9.9626,0,0,-9.9626,228.81894,187.1536)"/>
<use xlink:href="#font_2_2" transform="matrix(9.9626,0,0,-9.9626,21.765017,152.11533)"/>
<use xlink:href="#font_1_2" transform="matrix(9.9626,0,0,-9.9626,28.173298,152.56365)"/>
<use xlink:href="#font_2_1" transform="matrix(9.9626,0,0,-9.9626,31.459506,150.18259)"/>
<use xlink:href="#font_1_3" transform="matrix(9.9626,0,0,-9.9626,36.894868,152.56365)"/>
<use xlink:href="#font_2_2" transform="matrix(9.9626,0,0,-9.9626,3.849017,98.31934)"/>
<use xlink:href="#font_1_2" transform="matrix(9.9626,0,0,-9.9626,10.256297,98.767658)"/>
<use xlink:href="#font_2_1" transform="matrix(9.9626,0,0,-9.9626,13.543504,96.3866)"/>
<use xlink:href="#font_1_4" transform="matrix(9.9626,0,0,-9.9626,21.182906,97.103908)"/>
<use xlink:href="#font_2_3" transform="matrix(9.9626,0,0,-9.9626,31.134942,96.3866)"/>
<use xlink:href="#font_1_3" transform="matrix(9.9626,0,0,-9.9626,36.895868,98.767658)"/>
<path transform="matrix(1,0,0,-1,45.848,174.48001)" d="M 178.56633 80.69513 C 178.56633 81.79561 177.67426 82.68768 176.57378 82.68768 C 175.47332 82.68768 174.58123 81.79561 174.58123 80.69513 C 174.58123 79.59467 175.47332 78.70258 176.57378 78.70258 C 177.67426 78.70258 178.56633 79.59467 178.56633 80.69513 Z M 176.57378 80.69513 " fill="#000080"/>
<path transform="matrix(1,0,0,-1,45.848,174.48001)" stroke-width="1" stroke-linecap="butt" stroke-miterlimit="10" stroke-linejoin="miter" fill="none" stroke="#000080" d="M 178.56633 80.69513 C 178.56633 81.79561 177.67426 82.68768 176.57378 82.68768 C 175.47332 82.68768 174.58123 81.79561 174.58123 80.69513 C 174.58123 79.59467 175.47332 78.70258 176.57378 78.70258 C 177.67426 78.70258 178.56633 79.59467 178.56633 80.69513 Z M 176.57378 80.69513 "/>
<path transform="matrix(1,0,0,-1,45.848,174.48001)" d="M 107.97922 26.89838 C 107.97922 27.99884 107.08714 28.89093 105.98666 28.89093 C 104.8862 28.89093 103.99411 27.99884 103.99411 26.89838 C 103.99411 25.7979 104.8862 24.90582 105.98666 24.90582 C 107.08714 24.90582 107.97922 25.7979 107.97922 26.89838 Z M 105.98666 26.89838 " fill="#000080"/>
<path transform="matrix(1,0,0,-1,45.848,174.48001)" stroke-width="1" stroke-linecap="butt" stroke-miterlimit="10" stroke-linejoin="miter" fill="none" stroke="#000080" d="M 107.97922 26.89838 C 107.97922 27.99884 107.08714 28.89093 105.98666 28.89093 C 104.8862 28.89093 103.99411 27.99884 103.99411 26.89838 C 103.99411 25.7979 104.8862 24.90582 105.98666 24.90582 C 107.08714 24.90582 107.97922 25.7979 107.97922 26.89838 Z M 105.98666 26.89838 "/>
<symbol id="font_2_4">
<path d="M .305 .31300003 C .311 .33900003 .334 .43100003 .404 .43100003 C .409 .43100003 .433 .43100003 .454 .418 C .426 .41300003 .40600003 .388 .40600003 .36400003 C .40600003 .34800003 .417 .32900004 .444 .32900004 C .46600003 .32900004 .498 .34700004 .498 .38700003 C .498 .43900005 .439 .45300005 .405 .45300005 C .347 .45300005 .312 .40000005 .3 .37700004 C .275 .44300003 .221 .45300005 .19200002 .45300005 C .08800001 .45300005 .031000002 .32400004 .031000002 .29900003 C .031000002 .28900004 .041 .28900004 .043000007 .28900004 C .051000008 .28900004 .054000006 .291 .056 .3 C .09 .40600003 .156 .43100003 .19000001 .43100003 C .209 .43100003 .244 .42200003 .244 .36400003 C .244 .33300004 .22700002 .26600004 .19000001 .126 C .17400001 .064 .13900002 .022000002 .095000009 .022000002 C .08900001 .022000002 .06600001 .022000002 .045 .035 C .07000001 .040000004 .09200001 .061 .09200001 .089 C .09200001 .116000007 .07000001 .124000009 .055000009 .124000009 C .025 .124000009 0 .098000008 0 .06600001 C 0 .020000002 .050000006 0 .094000007 0 C .16000001 0 .19600001 .07000001 .19900002 .076000008 C .21100001 .039 .24700003 0 .307 0 C .41 0 .467 .12900001 .467 .15400002 C .467 .16400002 .458 .16400002 .455 .16400002 C .446 .16400002 .444 .16000001 .442 .15300001 C .409 .046 .341 .022000002 .30900003 .022000002 C .27 .022000002 .254 .054 .254 .08800001 C .254 .11000001 .26 .13200002 .271 .17600002 L .305 .31300003 Z "/>
</symbol>
<use xlink:href="#font_2_4" transform="matrix(9.9626,0,0,-9.9626,243.9559,176.73459)"/>
<use xlink:href="#font_2_5" transform="matrix(9.9626,0,0,-9.9626,43.515916,9.651342)"/>
</svg>
